<?xml version="1.0" standalone="no"?><svg xmlns="http://www.w3.org/2000/svg" viewBox="0 0 1440 320"><path fill="#a517ba" fill-opacity="1" d="M0,128L30,138.7C60,149,120,171,180,160C240,149,300,107,360,106.7C420,107,480,149,540,186.7C600,224,660,256,720,245.3C780,235,840,181,900,138.7C960,96,1020,64,1080,53.3C1140,43,1200,53,1260,80C1320,107,1380,149,1410,170.7L1440,192L1440,320L1410,320C1380,320,1320,320,1260,320C1200,320,1140,320,1080,320C1020,320,960,320,900,320C840,320,780,320,720,320C660,320,600,320,540,320C480,320,420,320,360,320C300,320,240,320,180,320C120,320,60,320,30,320L0,320Z"></path></svg>